<svg xmlns="http://www.w3.org/2000/svg" fill="none" viewBox="0 0 589 589"><path fill="#F59297" fill-rule="evenodd" d="M587.335 263C576.17 158 509.824 69.482 417.852 27H332v70.317C414.339 113.232 478.686 179.619 491.565 263h95.77Z" clip-rule="evenodd"/><path fill="#8FD1C1" fill-rule="evenodd" d="M159 556.045V441.714A201.22 201.22 0 0 1 134.539 415H64v62.821c25.714 32.289 58.07 59.053 95 78.224Z" clip-rule="evenodd"/><path fill="#FABD84" fill-rule="evenodd" d="M587.541 265h-95.677a201.842 201.842 0 0 1 2.057 28.798c0 29.566-6.412 57.635-17.921 82.892V415h87.299C579.813 378.218 589 337.432 589 294.5c0-9.956-.494-19.798-1.459-29.5Z" clip-rule="evenodd"/><path fill="#FCC9B3" fill-rule="evenodd" d="M536.5 222c-23.472 0-42.5 19.028-42.5 42.5v6c0 23.472 19.028 42.5 42.5 42.5s42.5-19.028 42.5-42.5v-6c0-23.472-19.028-42.5-42.5-42.5Z" clip-rule="evenodd"/><path fill="#7FC78C" fill-rule="evenodd" d="M575.471 383C537.897 502.404 426.311 589 294.5 589c-12.015 0-23.862-.72-35.5-2.118v-95.976a201.421 201.421 0 0 0 34.798 3.015c78.472 0 146.396-45.167 179.192-110.921h102.481Z" clip-rule="evenodd"/><path fill="#459789" fill-rule="evenodd" d="M104.675 371a168.416 168.416 0 0 1 7.83 7.658 197.965 197.965 0 0 1-3.396-7.658h-4.434ZM241 490.5c0 31.73-6.116 62.066-17.259 89.944a292.648 292.648 0 0 1-77.025-31.153C154.021 530.925 158 511.073 158 490.5c0-22.088-4.587-43.345-12.952-62.824 25.287 28.078 58.41 48.959 95.925 59.199.018 1.206.027 2.415.027 3.625Z" clip-rule="evenodd"/><path fill="#9EC7D0" fill-rule="evenodd" d="M20.236 402H87V231H6.863C2.37 251.451 0 272.699 0 294.5c0 37.936 7.173 74.197 20.236 107.5Z" clip-rule="evenodd"/><path fill="#51797D" fill-rule="evenodd" d="M17.537 394.844C56.615 366.286 82 320.108 82 268c0-44.019-18.115-83.806-47.298-112.314 17.725-33.104 41.592-62.426 70.078-86.443 23.173 20.973 42.661 45.942 57.377 73.819-41.97 36.684-68.482 90.614-68.482 150.736 0 50.057 18.378 95.821 48.756 130.914a269.525 269.525 0 0 1-67.834 65.683c-24.663-27.667-44.183-60.017-57.06-95.551Z" clip-rule="evenodd"/><path fill="#978AA4" fill-rule="evenodd" d="M304 .15c-3.154-.1-6.321-.15-9.5-.15C185.184 0 89.78 59.56 38.967 148h117.745c35.813-33.686 84.039-54.325 137.086-54.325 3.421 0 6.823.085 10.202.255V.15Z" clip-rule="evenodd"/><path fill="#6D995C" fill-rule="evenodd" d="M271.857 588.142c.312-34.154 9.221-66.253 24.668-94.24-.907.012-1.817.019-2.727.019-21.458 0-42.127-3.378-61.505-9.629-12.644 28.511-20.331 59.711-21.965 92.504a293.428 293.428 0 0 0 61.529 11.346Zm311.096-233.98c-28.314-13.464-59.437-21.98-92.25-24.43a198.755 198.755 0 0 1-21.855 61.128c.717-.008 1.434-.012 2.152-.012 33.53 0 65.124 8.286 92.847 22.923a292.21 292.21 0 0 0 19.106-59.609Z" clip-rule="evenodd"/><path fill="#F47F5F" fill-rule="evenodd" d="M585.088 246.381C577.138 226.804 557.931 213 535.5 213c-21.12 0-39.382 12.238-48.081 30.01 4.243 16.218 6.502 33.239 6.502 50.788 0 2.092-.032 4.176-.096 6.252C503.632 312.217 518.657 320 535.5 320c26.711 0 48.85-19.575 52.854-45.162a295.08 295.08 0 0 0-3.266-28.457ZM569 266.5c0 18.502-14.998 33.5-33.5 33.5-18.502 0-33.5-14.998-33.5-33.5 0-18.502 14.998-33.5 33.5-33.5 18.502 0 33.5 14.998 33.5 33.5Z" clip-rule="evenodd"/><path fill="#CE6564" fill-rule="evenodd" d="M558.041 162.915c-2.007.057-4.021.085-6.041.085-98.305 0-180.908-67.227-204.344-158.215 92.346 16.834 169.665 76.734 210.385 158.13Z" clip-rule="evenodd"/><path fill="#845578" fill-rule="evenodd" d="M41.067 144.403C141.747 128.461 230.125 75.549 291.858.012 292.738.004 293.619 0 294.5 0c40.686 0 79.445 8.25 114.695 23.17a517.345 517.345 0 0 1-61.888 77.738c-17.032-4.714-34.977-7.233-53.509-7.233-93.041 0-171.252 63.492-193.669 149.513-31.561 7.743-64.266 12.577-97.813 14.201 5.137-40.858 18.645-79.11 38.751-112.986Z" clip-rule="evenodd"/></svg>
